<?xml version="1.0" standalone="no"?>
<!DOCTYPE svg PUBLIC "-//W3C//DTD SVG 20010904//EN"
 "http://www.w3.org/TR/2001/REC-SVG-20010904/DTD/svg10.dtd">
<svg version="1.0" xmlns="http://www.w3.org/2000/svg"
 width="225.000000pt" height="225.000000pt" viewBox="0 0 225.000000 225.000000"
 preserveAspectRatio="xMidYMid meet">

<g transform="translate(0.000000,225.000000) scale(0.100000,-0.100000)"
fill="#000000" stroke="none">
<path d="M963 2234 c-369 -53 -693 -295 -853 -636 -145 -311 -142 -652 10
-964 187 -386 575 -628 1005 -628 303 0 575 113 790 329 216 215 329 487 329
790 0 560 -410 1031 -966 1110 -123 17 -192 17 -315 -1z m427 -44 c423 -112
734 -444 815 -872 19 -103 19 -283 0 -386 -87 -455 -432 -800 -887 -887 -103
-19 -283 -19 -386 0 -458 87 -807 439 -887 895 -83 471 162 954 590 1164 106
53 160 71 275 97 120 27 358 21 480 -11z"/>
<path d="M988 2193 c12 -2 32 -2 45 0 12 2 2 4 -23 4 -25 0 -35 -2 -22 -4z"/>
<path d="M1218 2193 c12 -2 32 -2 45 0 12 2 2 4 -23 4 -25 0 -35 -2 -22 -4z"/>
<path d="M928 2183 c6 -2 18 -2 25 0 6 3 1 5 -13 5 -14 0 -19 -2 -12 -5z"/>
<path d="M1298 2183 c6 -2 18 -2 25 0 6 3 1 5 -13 5 -14 0 -19 -2 -12 -5z"/>
<path d="M878 2173 c6 -2 18 -2 25 0 6 3 1 5 -13 5 -14 0 -19 -2 -12 -5z"/>
<path d="M1348 2173 c6 -2 18 -2 25 0 6 3 1 5 -13 5 -14 0 -19 -2 -12 -5z"/>
<path d="M815 2160 c-13 -5 -14 -9 -5 -9 8 0 24 4 35 9 13 5 14 9 5 9 -8 0
-24 -4 -35 -9z"/>
<path d="M1428 2153 c7 -3 16 -2 19 1 4 3 -2 6 -13 5 -11 0 -14 -3 -6 -6z"/>
<path d="M730 2130 c-8 -5 -10 -10 -5 -10 6 0 17 5 25 10 8 5 11 10 5 10 -5 0
-17 -5 -25 -10z"/>
<path d="M1500 2130 c8 -5 20 -10 25 -10 6 0 3 5 -5 10 -8 5 -19 10 -25 10 -5
0 -3 -5 5 -10z"/>
<path d="M638 2089 c-32 -16 -58 -32 -58 -34 0 -5 119 52 129 61 13 12 -22 -1
-71 -27z"/>
<path d="M1541 2116 c10 -9 129 -66 129 -61 0 5 -116 65 -126 65 -4 0 -5 -2
-3 -4z"/>
<path d="M1414 2094 c6 -14 0 -16 -39 -12 -48 6 -62 -6 -20 -16 36 -9 31 -27
-5 -19 -19 3 -30 1 -30 -6 0 -6 16 -11 37 -11 40 0 35 -16 -7 -22 -18 -2 -27
-12 -34 -36 -11 -39 1 -51 49 -52 41 -1 109 -33 136 -64 29 -33 36 -33 36 2 1
15 7 47 14 70 12 40 12 45 -4 57 -23 17 -22 21 11 20 39 0 35 26 -8 47 -55 27
-84 27 -88 1 -2 -16 2 -23 12 -23 9 0 16 -5 16 -11 0 -5 -5 -7 -11 -3 -6 3
-24 -4 -41 -16 -17 -13 -36 -19 -46 -15 -16 6 -16 7 1 16 9 6 17 19 17 29 0
10 10 26 21 34 24 17 20 46 -7 46 -11 0 -14 -5 -10 -16z m111 -48 c19 -8 35
-20 35 -26 0 -7 -3 -10 -7 -8 -5 3 -23 11 -40 18 -18 8 -33 18 -33 22 0 11 6
10 45 -6z m-165 -75 c0 -20 -17 -37 -27 -28 -7 8 7 47 18 47 5 0 9 -9 9 -19z
m165 9 c3 -5 1 -10 -4 -10 -6 0 -11 5 -11 10 0 6 2 10 4 10 3 0 8 -4 11 -10z
m-55 -10 c0 -5 -4 -10 -9 -10 -6 0 -13 5 -16 10 -3 6 1 10 9 10 9 0 16 -4 16
-10z m-70 -20 c0 -5 -7 -10 -15 -10 -8 0 -15 5 -15 10 0 6 7 10 15 10 8 0 15
-4 15 -10z m130 -12 c0 -13 -23 -5 -28 10 -2 7 2 10 12 6 9 -3 16 -11 16 -16z
m-72 -5 c2 -8 -5 -13 -17 -13 -12 0 -21 6 -21 16 0 18 31 15 38 -3z m52 -18
c9 -10 10 -19 4 -25 -13 -13 -49 13 -40 28 10 16 21 15 36 -3z"/>
<path d="M762 2069 c3 -23 -5 -30 -64 -53 -21 -8 -38 -20 -38 -25 0 -17 20
-13 67 15 25 14 47 23 50 21 2 -3 -16 -32 -41 -64 -30 -38 -46 -68 -46 -86 0
-42 21 -29 36 22 15 52 46 87 90 101 39 13 67 6 112 -28 33 -25 49 -25 39 2
-10 25 -54 48 -109 55 -52 8 -52 8 -25 19 16 7 39 12 52 12 13 0 27 5 30 10 8
13 -39 13 -82 1 -24 -7 -35 -6 -44 5 -17 21 -31 17 -27 -7z"/>
<path d="M499 2004 c-106 -77 -224 -201 -284 -299 -28 -44 -13 -28 41 45 68
93 136 162 223 227 91 68 97 73 89 73 -3 0 -34 -21 -69 -46z"/>
<path d="M1685 2044 c6 -6 42 -33 80 -62 82 -59 161 -140 229 -232 54 -73 69
-90 41 -45 -53 87 -172 215 -260 282 -46 34 -105 72 -90 57z"/>
<path d="M1008 1863 c-4 -50 -34 -58 -51 -14 -7 19 -18 31 -29 31 -14 0 -18
-8 -18 -39 0 -51 -23 -61 -47 -21 -19 32 -22 34 -40 22 -9 -6 -10 -17 -3 -41
13 -45 -14 -55 -47 -17 -19 22 -27 25 -38 16 -10 -9 -11 -18 -3 -41 15 -44 -4
-60 -35 -31 -42 40 -68 22 -41 -29 13 -26 14 -33 2 -40 -18 -12 -24 -11 -38 6
-17 20 -50 19 -50 -2 0 -9 7 -25 16 -35 14 -14 14 -20 4 -33 -12 -14 -15 -14
-36 0 -30 19 -43 19 -51 -1 -3 -8 4 -25 18 -40 30 -32 15 -51 -30 -36 -23 8
-32 7 -41 -3 -9 -11 -6 -19 16 -38 38 -33 28 -60 -17 -47 -24 7 -35 6 -41 -3
-12 -18 -10 -21 22 -40 40 -24 30 -47 -21 -47 -48 0 -53 -22 -8 -45 41 -22 36
-49 -11 -49 -28 -1 -35 -5 -35 -20 0 -14 10 -22 33 -28 44 -12 40 -42 -6 -46
-26 -3 -32 -8 -32 -27 0 -19 6 -24 32 -27 46 -4 50 -34 6 -46 -23 -6 -33 -14
-33 -28 0 -15 7 -19 35 -20 47 0 52 -27 11 -49 -45 -23 -40 -45 8 -45 51 0 61
-23 21 -47 -32 -19 -34 -22 -22 -40 6 -9 17 -10 41 -3 44 12 53 -12 17 -49
-33 -34 -20 -55 26 -39 44 15 59 -4 29 -36 -14 -15 -21 -32 -18 -40 8 -20 21
-20 51 -1 21 14 24 14 36 0 10 -13 10 -19 -4 -33 -9 -10 -16 -26 -16 -35 0
-21 33 -22 50 -2 14 17 20 18 38 6 12 -7 11 -14 -2 -40 -27 -51 -1 -69 41 -29
31 29 50 13 35 -31 -8 -23 -7 -32 3 -41 11 -9 19 -6 38 16 33 38 60 28 47 -17
-7 -24 -6 -35 3 -41 18 -12 21 -10 40 22 24 40 47 30 47 -21 0 -48 22 -53 45
-8 22 42 49 35 53 -14 4 -48 32 -48 44 1 12 44 42 40 46 -6 5 -45 38 -45 50 0
12 46 39 49 50 6 12 -49 40 -49 44 -1 4 50 34 58 51 14 7 -19 18 -31 29 -31
14 0 18 8 18 39 0 51 23 61 47 21 19 -32 22 -34 40 -22 9 6 10 17 3 41 -13 45
14 55 47 17 19 -22 27 -25 38 -16 10 9 11 18 3 41 -15 44 4 60 35 31 13 -12
29 -22 35 -22 21 0 24 27 8 53 -15 22 -15 25 -1 37 13 10 19 10 33 -4 20 -17
48 -21 56 -7 3 5 -4 21 -15 35 -17 22 -19 29 -9 42 11 13 15 13 36 -1 30 -19
43 -19 51 1 3 8 -4 25 -18 40 -30 32 -15 51 29 36 46 -16 59 5 26 39 -36 37
-27 61 17 49 24 -7 35 -6 41 3 12 18 10 21 -22 40 -40 24 -30 47 21 47 48 0
53 22 8 45 -41 22 -36 49 11 49 28 1 35 5 35 20 0 14 -10 22 -33 28 -45 12
-40 42 6 46 28 3 33 7 30 25 -2 15 -12 23 -33 27 -43 7 -45 37 -3 48 23 6 33
14 33 28 0 15 -7 19 -35 20 -47 0 -52 27 -11 49 45 23 40 45 -8 45 -51 0 -61
23 -21 47 32 19 34 22 22 40 -6 9 -17 10 -41 3 -45 -13 -55 14 -17 47 22 19
25 27 16 38 -9 10 -18 11 -41 3 -45 -15 -60 4 -30 36 14 15 21 32 18 40 -8 20
-21 20 -51 1 -21 -14 -24 -14 -36 0 -10 13 -10 19 4 33 9 10 16 26 16 35 0 21
-33 22 -50 2 -14 -17 -20 -18 -39 -6 -12 8 -12 13 3 36 32 49 2 73 -41 33 -31
-29 -50 -13 -35 31 8 23 7 32 -3 41 -11 9 -19 6 -38 -16 -33 -38 -60 -28 -47
17 7 24 6 35 -3 41 -18 12 -21 10 -40 -22 -24 -40 -47 -30 -47 21 0 31 -4 39
-18 39 -11 0 -22 -12 -29 -31 -17 -44 -47 -36 -51 14 -4 48 -32 48 -46 -1 -11
-41 -39 -39 -46 3 -4 21 -12 31 -27 33 -18 3 -22 -2 -25 -30 -4 -46 -34 -51
-46 -6 -12 49 -40 49 -44 1z m191 -103 c476 -60 720 -587 458 -988 -254 -386
-821 -380 -1072 13 -185 289 -102 679 185 870 83 55 179 92 268 104 37 5 69 9
72 10 3 0 43 -4 89 -9z"/>
<path d="M1090 1595 c0 -33 -14 -48 -22 -23 -2 6 -9 8 -16 4 -18 -11 -2 -37
19 -31 18 6 19 -1 19 -120 l0 -126 38 3 37 3 3 163 2 162 -40 0 c-39 0 -40 -1
-40 -35z m50 -15 c0 -5 -7 -10 -15 -10 -8 0 -15 5 -15 10 0 6 7 10 15 10 8 0
15 -4 15 -10z m0 -30 c0 -5 -7 -10 -15 -10 -8 0 -15 5 -15 10 0 6 7 10 15 10
8 0 15 -4 15 -10z m-3 -36 c-3 -3 -12 -4 -19 -1 -8 3 -5 6 6 6 11 1 17 -2 13
-5z m3 -34 c0 -5 -7 -10 -15 -10 -8 0 -15 5 -15 10 0 6 7 10 15 10 8 0 15 -4
15 -10z"/>
<path d="M1192 1453 l3 -148 33 -3 32 -3 0 110 c0 61 4 111 9 111 5 0 35 -47
66 -105 31 -58 61 -105 68 -105 7 0 20 7 31 15 18 13 16 19 -45 129 l-63 115
-27 -15 c-38 -19 -39 -18 -39 16 0 28 -3 30 -35 30 l-36 0 3 -147z m53 97 c3
-5 -3 -10 -15 -10 -12 0 -18 5 -15 10 3 6 10 10 15 10 5 0 12 -4 15 -10z m-2
-37 c-7 -2 -19 -2 -25 0 -7 3 -2 5 12 5 14 0 19 -2 13 -5z m97 -2 c0 -5 -7
-11 -15 -15 -15 -5 -20 5 -8 17 9 10 23 9 23 -2z m-90 -31 c0 -5 -9 -10 -20
-10 -11 0 -20 5 -20 10 0 6 9 10 20 10 11 0 20 -4 20 -10z m97 -7 c-9 -9 -19
-14 -23 -11 -10 10 6 28 24 28 15 0 15 -1 -1 -17z"/>
<path d="M980 1546 c-14 -8 -50 -19 -81 -26 -47 -11 -56 -16 -52 -31 4 -13 0
-19 -11 -19 -9 0 -16 -8 -16 -20 0 -19 7 -20 95 -20 88 0 95 1 95 20 0 18 -7
20 -62 21 l-63 1 73 25 c56 19 72 29 72 44 0 22 -15 24 -50 5z"/>
<path d="M1030 1450 c0 -11 7 -20 15 -20 8 0 15 9 15 20 0 11 -7 20 -15 20 -8
0 -15 -9 -15 -20z"/>
<path d="M820 1390 c0 -19 7 -20 95 -20 88 0 95 1 95 20 0 19 -7 20 -95 20
-88 0 -95 -1 -95 -20z"/>
<path d="M1030 1390 c0 -11 7 -20 15 -20 8 0 15 9 15 20 0 11 -7 20 -15 20 -8
0 -15 -9 -15 -20z"/>
<path d="M820 1320 c0 -19 7 -20 95 -20 88 0 95 1 95 20 0 19 -7 20 -95 20
-88 0 -95 -1 -95 -20z"/>
<path d="M1030 1320 c0 -11 7 -20 15 -20 8 0 15 9 15 20 0 11 -7 20 -15 20 -8
0 -15 -9 -15 -20z"/>
<path d="M720 1257 c-22 -11 -25 -19 -25 -62 0 -47 2 -50 27 -53 25 -3 27 0
30 39 4 60 28 64 28 5 0 -45 1 -46 33 -46 29 0 35 6 65 59 17 33 32 62 32 65
0 12 -166 5 -190 -7z"/>
<path d="M1008 1261 c11 -6 7 -21 -17 -69 -17 -34 -31 -64 -31 -67 0 -3 41 -5
91 -5 81 0 90 -2 87 -17 -3 -15 -18 -19 -95 -23 -89 -5 -108 -15 -60 -33 32
-12 19 -48 -39 -109 -30 -32 -54 -64 -51 -71 6 -18 488 -18 494 0 3 7 -21 39
-51 71 -56 59 -71 97 -41 108 8 4 30 21 49 40 19 19 43 34 55 34 11 0 42 14
68 30 62 40 126 40 78 0 -10 -8 -15 -30 -15 -61 0 -29 6 -53 15 -63 8 -8 15
-23 15 -34 0 -11 -7 -25 -15 -32 -20 -16 -20 -103 -1 -120 8 -6 25 -10 38 -8
21 3 23 9 26 64 2 45 -1 64 -13 74 -19 16 -19 34 0 50 22 18 21 126 -1 134
-24 9 -12 28 27 41 28 10 35 17 37 43 l3 32 -333 0 c-185 0 -327 -4 -320 -9z
m592 -173 c0 -33 -3 -39 -17 -34 -9 4 -20 1 -25 -6 -4 -8 -8 5 -8 32 0 41 2
45 25 46 23 2 25 -2 25 -38z m-290 11 c0 -18 -5 -20 -52 -17 -41 2 -54 7 -56
21 -3 14 5 17 52 17 50 0 56 -2 56 -21z m-62 -61 c3 -16 -7 -18 -107 -18 -105
0 -111 1 -111 20 0 20 5 21 107 18 93 -3 108 -5 111 -20z m7 -68 c0 -12 -21
-16 -117 -18 -113 -3 -118 -2 -118 18 0 20 5 21 118 18 96 -2 117 -6 117 -18z
m343 -74 c-2 -33 -7 -41 -23 -41 -16 0 -21 8 -23 41 -3 39 -1 42 23 42 24 0
26 -3 23 -42z m-283 4 c0 -13 -28 -15 -177 -18 -145 -2 -178 0 -178 11 0 8 3
17 7 21 4 3 84 5 177 4 144 -3 171 -5 171 -18z"/>
<path d="M835 1055 c-60 -113 -112 -205 -115 -205 -3 0 -20 9 -39 21 -18 11
-34 19 -35 17 -1 -2 -7 -10 -14 -19 -22 -29 14 -74 91 -115 l67 -35 18 30 c9
17 20 31 24 31 4 0 8 -30 10 -67 l3 -68 280 -3 c154 -1 290 0 303 3 22 5 23 9
20 88 l-3 82 -296 3 c-248 2 -298 0 -308 -12 -11 -13 -17 -12 -47 6 l-34 20
24 41 c28 51 77 140 145 268 39 73 48 98 39 107 -7 7 -14 12 -17 12 -4 0 -55
-92 -116 -205z m595 -325 l0 -70 -287 2 -288 3 -3 68 -3 67 291 0 290 0 0 -70z"/>
<path d="M893 763 c12 -3 17 -15 17 -39 0 -24 5 -34 15 -34 11 0 15 11 15 40
0 39 -1 40 -32 39 -18 -1 -25 -3 -15 -6z"/>
<path d="M980 730 l0 -40 55 0 55 0 0 40 0 40 -55 0 -55 0 0 -40z m90 20 c0
-5 -16 -10 -35 -10 -19 0 -35 5 -35 10 0 6 16 10 35 10 19 0 35 -4 35 -10z
m-2 -37 c2 -9 -8 -13 -32 -13 -34 0 -44 8 -29 24 11 11 56 2 61 -11z"/>
<path d="M1132 748 c2 -19 10 -24 46 -26 57 -4 54 -20 -5 -25 -43 -3 -42 -4
15 -5 l62 -2 0 40 0 40 -61 0 c-57 0 -60 -1 -57 -22z m88 2 c0 -5 -16 -10 -35
-10 -19 0 -35 5 -35 10 0 6 16 10 35 10 19 0 35 -4 35 -10z"/>
<path d="M1290 730 l0 -40 55 0 c52 0 55 1 55 25 0 23 -4 25 -45 25 -60 0 -58
18 3 23 46 3 46 3 -10 5 l-58 2 0 -40z m90 -15 c0 -10 -11 -15 -35 -15 -24 0
-35 5 -35 15 0 10 11 15 35 15 24 0 35 -5 35 -15z"/>
<path d="M262 1709 c-7 -12 -10 -24 -6 -27 4 -4 9 -1 11 6 6 17 23 15 23 -3 0
-8 6 -14 13 -12 7 1 11 -6 9 -17 -2 -11 1 -15 7 -11 17 10 13 50 -7 68 -24 22
-34 21 -50 -4z"/>
<path d="M1880 1705 c0 -3 12 -17 28 -30 34 -30 24 -42 -12 -14 -15 12 -30 18
-34 14 -4 -4 6 -18 23 -31 22 -18 27 -26 18 -35 -9 -9 -20 -6 -47 10 -20 13
-46 21 -58 19 -18 -3 -10 -10 39 -32 71 -32 81 -53 62 -130 -6 -26 -9 -50 -5
-53 14 -14 30 19 34 72 5 61 25 72 30 17 4 -43 22 -41 22 2 0 50 16 53 23 5 3
-22 8 -43 11 -46 14 -15 16 9 6 72 -8 47 -8 71 0 79 16 16 12 26 -13 24 -12
-1 -44 12 -69 30 -46 32 -58 37 -58 27z m115 -96 c8 -12 -23 -49 -41 -49 -7 0
-18 9 -24 21 -23 42 40 69 65 28z"/>
<path d="M350 1660 c-27 -29 -65 -40 -72 -21 -1 4 -13 12 -26 16 -21 6 -23 4
-20 -21 2 -18 12 -33 26 -40 34 -17 34 -19 21 -63 -10 -34 -9 -44 5 -66 9 -14
24 -25 32 -25 15 0 15 2 0 25 -46 70 23 205 105 205 18 0 28 4 24 10 -13 22
-67 10 -95 -20z m-40 -54 c0 -3 -4 -8 -10 -11 -5 -3 -10 -1 -10 4 0 6 5 11 10
11 6 0 10 -2 10 -4z"/>
<path d="M159 1609 c-16 -34 -29 -63 -27 -65 2 -2 18 26 36 61 17 36 30 65 27
65 -3 0 -19 -27 -36 -61z"/>
<path d="M2082 1605 c18 -35 34 -63 36 -61 4 5 -56 126 -63 126 -3 0 10 -29
27 -65z"/>
<path d="M400 1611 c0 -17 -4 -31 -10 -31 -5 0 -10 9 -10 21 0 34 -33 18 -49
-24 -11 -30 -12 -40 -2 -46 6 -4 9 -15 5 -24 -9 -23 22 -23 35 1 9 15 12 15
20 2 15 -21 26 -4 28 43 1 23 3 51 5 61 2 10 -3 21 -9 23 -9 3 -13 -6 -13 -26z
m-41 -42 c-13 -26 -23 -18 -14 10 3 12 11 19 16 16 5 -4 5 -14 -2 -26z m11
-29 c0 -5 -5 -10 -11 -10 -5 0 -7 5 -4 10 3 6 8 10 11 10 2 0 4 -4 4 -10z"/>
<path d="M194 1564 c-7 -28 7 -44 38 -44 19 0 44 38 32 48 -4 4 -9 1 -11 -5
-7 -19 -23 -16 -24 5 0 13 -2 12 -9 -5 -13 -31 -24 -29 -16 2 4 14 4 25 1 25
-2 0 -8 -12 -11 -26z"/>
<path d="M111 1499 c-6 -18 -9 -34 -7 -36 2 -2 9 10 15 28 6 18 9 34 7 36 -2
2 -9 -10 -15 -28z"/>
<path d="M2126 1510 c3 -14 11 -32 16 -40 6 -10 7 -7 2 10 -3 14 -11 32 -16
40 -6 10 -7 7 -2 -10z"/>
<path d="M91 1434 c0 -11 3 -14 6 -6 3 7 2 16 -1 19 -3 4 -6 -2 -5 -13z"/>
<path d="M2151 1434 c0 -11 3 -14 6 -6 3 7 2 16 -1 19 -3 4 -6 -2 -5 -13z"/>
<path d="M72 1360 c0 -14 2 -19 5 -12 2 6 2 18 0 25 -3 6 -5 1 -5 -13z"/>
<path d="M2172 1360 c0 -14 2 -19 5 -12 2 6 2 18 0 25 -3 6 -5 1 -5 -13z"/>
<path d="M62 1310 c0 -14 2 -19 5 -12 2 6 2 18 0 25 -3 6 -5 1 -5 -13z"/>
<path d="M2182 1310 c0 -14 2 -19 5 -12 2 6 2 18 0 25 -3 6 -5 1 -5 -13z"/>
<path d="M53 1230 c0 -25 2 -35 4 -22 2 12 2 32 0 45 -2 12 -4 2 -4 -23z"/>
<path d="M2193 1230 c0 -25 2 -35 4 -22 2 12 2 32 0 45 -2 12 -4 2 -4 -23z"/>
<path d="M1990 1102 c0 -5 12 -18 27 -27 l26 -17 -30 -13 c-27 -11 -31 -19
-37 -70 -3 -32 -4 -60 -1 -63 3 -3 5 4 5 15 0 19 4 20 43 12 56 -11 67 -11 67
0 0 5 -15 12 -32 16 -60 12 -68 16 -68 35 0 24 54 54 86 47 16 -3 24 0 24 9 0
8 -10 14 -22 14 -11 0 -36 11 -55 26 -18 14 -33 21 -33 16z"/>
<path d="M140 1081 c0 -54 47 -72 68 -26 15 33 40 32 45 -2 4 -21 4 -19 3 7
-1 45 -35 54 -60 16 -22 -35 -50 -35 -44 -1 3 14 1 25 -3 25 -5 0 -9 -9 -9
-19z"/>
<path d="M53 1020 c0 -25 2 -35 4 -22 2 12 2 32 0 45 -2 12 -4 2 -4 -23z"/>
<path d="M2193 1020 c0 -25 2 -35 4 -22 2 12 2 32 0 45 -2 12 -4 2 -4 -23z"/>
<path d="M193 998 c-48 -10 -59 -33 -14 -26 22 3 31 0 34 -13 6 -22 -1 -29
-25 -29 -10 0 -18 -7 -18 -16 0 -10 6 -14 18 -11 9 3 34 8 55 12 43 7 51 31
10 30 -37 0 -43 30 -9 39 29 7 35 27 9 25 -10 -1 -37 -5 -60 -11z"/>
<path d="M62 945 c0 -16 2 -22 5 -12 2 9 2 23 0 30 -3 6 -5 -1 -5 -18z"/>
<path d="M2182 940 c0 -14 2 -19 5 -12 2 6 2 18 0 25 -3 6 -5 1 -5 -13z"/>
<path d="M72 890 c0 -14 2 -19 5 -12 2 6 2 18 0 25 -3 6 -5 1 -5 -13z"/>
<path d="M2172 890 c0 -14 2 -19 5 -12 2 6 2 18 0 25 -3 6 -5 1 -5 -13z"/>
<path d="M1955 890 c-7 -11 -2 -13 60 -29 49 -13 55 -13 55 -1 0 5 -23 16 -52
25 -61 18 -55 17 -63 5z"/>
<path d="M180 859 c0 -7 9 -9 21 -6 28 7 36 -19 14 -43 -32 -35 -7 -34 44 0
29 20 47 39 44 47 -7 17 -123 18 -123 2z m88 -11 c-6 -18 -28 -21 -28 -4 0 9
7 16 16 16 9 0 14 -5 12 -12z"/>
<path d="M1934 826 c-11 -46 21 -61 65 -30 30 21 48 6 31 -27 -11 -23 -11 -23
5 -4 19 23 16 44 -7 59 -13 8 -21 6 -36 -7 -35 -32 -73 -12 -40 21 9 9 9 12 0
12 -6 0 -14 -11 -18 -24z"/>
<path d="M91 814 c0 -11 3 -14 6 -6 3 7 2 16 -1 19 -3 4 -6 -2 -5 -13z"/>
<path d="M2151 814 c0 -11 3 -14 6 -6 3 7 2 16 -1 19 -3 4 -6 -2 -5 -13z"/>
<path d="M106 770 c3 -14 11 -32 16 -40 6 -10 7 -7 2 10 -3 14 -11 32 -16 40
-6 10 -7 7 -2 -10z"/>
<path d="M270 769 c-19 -10 -39 -20 -45 -22 -5 -2 -7 -7 -4 -11 4 -4 23 3 43
15 43 25 44 21 10 -31 -15 -22 -24 -43 -20 -47 8 -8 106 37 106 49 0 5 -14 1
-31 -7 -39 -21 -45 -15 -19 18 22 28 26 58 8 56 -7 -1 -29 -9 -48 -20z"/>
<path d="M2131 759 c-6 -18 -9 -34 -7 -36 2 -2 9 10 15 28 6 18 9 34 7 36 -2
2 -9 -10 -15 -28z"/>
<path d="M1900 743 c-11 -14 -20 -31 -20 -37 1 -18 91 -59 103 -47 7 7 -5 17
-37 32 -25 13 -46 29 -46 36 0 20 31 16 36 -4 4 -13 15 -18 42 -17 48 1 56 24
8 24 -24 0 -36 5 -36 14 0 26 -29 26 -50 -1z"/>
<path d="M2082 645 c-17 -36 -30 -65 -27 -65 7 0 67 121 63 126 -2 2 -18 -26
-36 -61z"/>
<path d="M140 686 c0 -11 50 -106 55 -106 3 0 -7 24 -21 53 -28 55 -34 65 -34
53z"/>
<path d="M316 659 c-14 -11 -26 -28 -26 -38 0 -22 28 -61 43 -61 21 0 40 17
32 29 -5 9 -10 9 -21 0 -20 -16 -38 2 -30 28 6 18 44 43 66 43 5 0 16 -12 24
-27 10 -19 15 -22 16 -11 0 18 -45 58 -65 58 -7 0 -24 -9 -39 -21z"/>
<path d="M1846 656 c-9 -14 -16 -29 -16 -33 0 -4 20 -21 45 -36 l45 -29 20 24
c11 12 19 28 19 33 0 6 -6 2 -13 -7 -15 -20 -24 -22 -45 -9 -13 8 -13 12 0 27
13 16 12 16 -8 3 -29 -18 -54 1 -33 26 7 8 11 18 8 21 -3 2 -13 -7 -22 -20z"/>
<path d="M1807 604 c-3 -4 6 -22 20 -41 14 -18 23 -36 21 -39 -3 -3 -22 3 -42
12 -25 12 -39 15 -47 7 -7 -7 8 -16 48 -31 32 -12 60 -18 64 -14 8 9 -56 114
-64 106z"/>
<path d="M398 559 c-21 -17 -38 -37 -38 -45 0 -18 9 -18 32 2 15 14 20 15 34
3 15 -12 14 -15 -7 -31 -13 -11 -19 -22 -13 -28 5 -5 27 7 54 30 33 28 42 42
34 50 -8 8 -14 7 -24 -5 -7 -8 -18 -15 -25 -15 -22 0 -25 29 -5 43 11 8 17 17
13 20 -10 11 -16 8 -55 -24z"/>
<path d="M210 551 c5 -11 15 -23 21 -27 6 -3 3 5 -6 20 -20 30 -30 35 -15 7z"/>
<path d="M2002 511 c-61 -87 -146 -175 -223 -233 -77 -57 -93 -75 -24 -28 92
63 215 192 280 293 32 50 10 28 -33 -32z"/>
<path d="M1726 512 c-7 -11 75 -95 85 -85 4 4 -10 27 -32 51 -42 44 -45 46
-53 34z"/>
<path d="M261 480 c32 -49 175 -190 231 -229 70 -47 58 -31 -19 26 -65 49
-131 113 -201 198 -31 37 -32 37 -11 5z"/>
<path d="M491 458 c-30 -18 -49 -34 -43 -36 7 -2 19 1 26 7 21 17 43 -13 25
-35 -10 -13 -10 -17 1 -24 11 -7 20 4 38 47 13 31 20 59 15 64 -4 4 -32 -6
-62 -23z m33 -12 c-6 -16 -24 -23 -24 -8 0 10 22 33 27 28 2 -2 1 -11 -3 -20z"/>
<path d="M1696 468 c4 -7 14 -21 22 -30 13 -15 13 -18 1 -18 -8 1 -25 7 -39
15 -17 9 -29 10 -37 3 -10 -8 -4 -21 24 -54 20 -25 38 -42 41 -39 3 3 -5 16
-18 30 -30 32 -21 40 25 21 20 -9 41 -13 46 -10 10 6 -49 94 -63 94 -5 0 -6
-6 -2 -12z"/>
<path d="M571 394 c-21 -30 -29 -50 -23 -56 6 -6 21 7 42 37 19 28 29 50 23
56 -5 5 -22 -9 -42 -37z"/>
<path d="M1600 405 c0 -2 9 -19 20 -37 24 -39 25 -64 5 -72 -15 -5 -65 50 -65
72 0 13 -16 16 -23 4 -3 -4 6 -26 20 -50 28 -46 48 -52 84 -23 l23 19 -24 46
c-21 39 -40 59 -40 41z"/>
<path d="M666 331 c-14 -27 -34 -52 -44 -54 -10 -3 -7 -5 10 -6 21 -1 31 8 53
45 17 28 23 50 18 55 -6 6 -20 -10 -37 -40z"/>
<path d="M720 303 c-24 -55 -25 -56 -13 -60 9 -3 53 79 53 97 0 25 -21 5 -40
-37z"/>
<path d="M1433 325 c-40 -17 -52 -55 -29 -90 28 -43 114 -27 97 18 -11 29 -27
23 -23 -8 3 -20 -1 -25 -17 -25 -30 0 -60 62 -41 85 7 8 21 15 31 15 11 0 19
5 19 10 0 12 2 12 -37 -5z"/>
<path d="M781 270 c-23 -27 -37 -50 -30 -50 6 0 17 7 24 17 16 22 49 10 40
-16 -3 -12 0 -21 10 -25 12 -4 15 5 15 59 0 36 -4 65 -8 65 -5 0 -28 -22 -51
-50z m39 5 c0 -8 -7 -15 -16 -15 -14 0 -14 3 -4 15 7 8 14 15 16 15 2 0 4 -7
4 -15z"/>
<path d="M1344 284 c3 -9 9 -28 12 -42 l6 -27 -31 33 c-33 34 -68 44 -57 16 3
-9 9 -33 12 -55 4 -21 11 -39 16 -39 5 0 7 9 4 20 -19 67 -20 67 23 26 22 -22
43 -37 46 -35 8 9 -17 119 -27 119 -6 0 -7 -7 -4 -16z"/>
<path d="M886 268 c-33 -47 -10 -98 45 -98 25 0 33 6 45 35 10 25 12 41 5 54
-20 37 -72 42 -95 9z m72 -23 c4 -42 -21 -74 -45 -59 -11 8 -17 22 -16 39 4
58 56 75 61 20z"/>
<path d="M1059 263 c22 -4 23 -8 17 -59 -5 -44 -3 -54 9 -54 12 0 15 13 15 54
0 49 2 55 23 59 12 2 -3 4 -33 4 -30 0 -44 -2 -31 -4z"/>
<path d="M1157 252 c-53 -58 29 -136 84 -81 21 21 20 59 -3 86 -15 19 -62 16
-81 -5z m67 -8 c20 -51 -7 -100 -40 -73 -14 12 -19 70 -7 82 12 13 41 7 47 -9z"/>
<path d="M565 204 c24 -19 116 -67 120 -62 2 2 -29 20 -68 41 -40 20 -63 30
-52 21z"/>
<path d="M1610 170 c-30 -16 -51 -29 -47 -30 10 0 107 49 107 55 0 7 1 7 -60
-25z"/>
<path d="M1485 115 c-25 -12 -26 -14 -5 -9 28 7 60 23 45 23 -5 0 -23 -6 -40
-14z"/>
<path d="M775 105 c17 -8 37 -14 45 -14 8 0 -1 7 -20 14 -46 18 -64 17 -25 0z"/>
<path d="M1428 93 c7 -3 16 -2 19 1 4 3 -2 6 -13 5 -11 0 -14 -3 -6 -6z"/>
<path d="M878 73 c6 -2 18 -2 25 0 6 3 1 5 -13 5 -14 0 -19 -2 -12 -5z"/>
<path d="M1348 73 c6 -2 18 -2 25 0 6 3 1 5 -13 5 -14 0 -19 -2 -12 -5z"/>
<path d="M933 63 c9 -2 23 -2 30 0 6 3 -1 5 -18 5 -16 0 -22 -2 -12 -5z"/>
<path d="M1293 63 c9 -2 23 -2 30 0 6 3 -1 5 -18 5 -16 0 -22 -2 -12 -5z"/>
<path d="M1003 53 c15 -2 37 -2 50 0 12 2 0 4 -28 4 -27 0 -38 -2 -22 -4z"/>
<path d="M1203 53 c15 -2 37 -2 50 0 12 2 0 4 -28 4 -27 0 -38 -2 -22 -4z"/>
</g>
</svg>
