<?xml version="1.0" standalone="no"?>
<!DOCTYPE svg PUBLIC "-//W3C//DTD SVG 20010904//EN"
 "http://www.w3.org/TR/2001/REC-SVG-20010904/DTD/svg10.dtd">
<svg version="1.0" xmlns="http://www.w3.org/2000/svg"
 width="225.000000pt" height="225.000000pt" viewBox="0 0 225.000000 225.000000"
 preserveAspectRatio="xMidYMid meet">

<g transform="translate(0.000000,225.000000) scale(0.100000,-0.100000)"
fill="#000000" stroke="none">
<path d="M1003 2230 c-457 -57 -832 -379 -948 -814 -125 -465 57 -957 452
-1219 180 -120 358 -177 578 -184 167 -6 276 10 420 61 296 106 547 347 656
631 64 166 72 213 73 415 0 170 -2 193 -27 285 -100 368 -383 665 -742 778
-146 46 -324 64 -462 47z m318 -25 c393 -69 731 -362 852 -740 44 -137 52
-192 51 -355 -1 -172 -21 -272 -84 -422 -100 -241 -337 -478 -578 -578 -150
-63 -250 -83 -422 -84 -207 -1 -346 31 -515 117 -487 251 -715 825 -534 1343
129 371 454 649 839 719 101 18 289 18 391 0z"/>
<path d="M995 2153 c-418 -57 -766 -365 -872 -773 -124 -482 117 -989 571
-1200 546 -255 1201 15 1407 580 116 320 76 663 -112 941 -53 79 -165 196
-244 256 -123 93 -313 171 -469 192 -74 11 -218 12 -281 4z m55 -36 c0 -8 -10
-13 -22 -13 -22 1 -23 -2 -20 -63 2 -35 7 -73 13 -83 8 -15 6 -18 -11 -18 -11
0 -20 3 -20 8 0 18 -21 136 -26 143 -3 5 -16 4 -29 -1 -19 -7 -25 -6 -25 4 0
8 23 16 68 23 37 5 68 11 70 11 1 1 2 -4 2 -11z m50 2 c0 -6 10 -25 22 -41
l21 -30 18 23 c10 13 19 30 19 37 0 6 7 12 15 12 12 0 8 -11 -16 -46 -25 -36
-30 -53 -27 -85 3 -32 0 -39 -14 -39 -14 0 -18 8 -18 41 0 29 -9 54 -30 86
-36 52 -36 53 -10 53 11 0 20 -5 20 -11z m-201 -83 c7 -35 19 -76 26 -90 13
-24 12 -26 -8 -26 -19 0 -25 11 -42 85 -19 79 -19 91 6 94 3 1 11 -28 18 -63z
m552 25 c20 -20 29 -39 29 -61 0 -42 -47 -90 -89 -90 -46 0 -78 19 -96 56 -14
29 -14 37 -1 68 17 42 39 55 89 56 29 0 45 -7 68 -29z m-638 -40 c-2 -3 -9 1
-15 7 -15 15 -55 16 -63 2 -10 -17 13 -38 48 -45 73 -15 99 -58 55 -89 -32
-23 -71 -20 -87 6 -14 22 -14 22 13 5 31 -21 69 -14 64 11 -2 9 -17 20 -33 25
-58 17 -80 32 -83 58 -6 48 72 85 94 44 6 -11 9 -22 7 -24z m777 -6 c32 -16
48 -30 44 -39 -4 -11 -11 -8 -29 10 -29 29 -41 30 -55 5 -16 -31 -12 -41 21
-55 19 -8 27 -16 20 -20 -6 -4 -19 -2 -30 4 -31 16 -38 13 -53 -25 -10 -25
-17 -32 -28 -25 -11 7 -8 20 18 78 18 38 32 74 32 80 0 16 4 16 60 -13z m-913
-62 c3 -9 1 -24 -5 -33 -14 -22 0 -36 55 -56 l38 -13 -37 -1 c-20 0 -49 5 -63
12 -33 15 -40 6 -19 -27 11 -17 14 -29 7 -36 -7 -7 -24 8 -51 44 -22 30 -47
61 -56 69 -14 15 -12 18 17 41 52 39 99 40 114 0z m1072 -108 c-5 -27 -11 -60
-14 -72 l-5 -23 66 25 c100 38 108 20 28 -56 -73 -71 -112 -73 -43 -3 24 24
41 44 38 44 -3 0 -32 -9 -64 -20 l-57 -20 6 35 c3 19 9 52 12 73 l5 37 -20
-23 c-11 -13 -29 -36 -40 -50 -16 -22 -22 -25 -32 -14 -9 8 -9 12 -2 12 6 0
33 29 59 65 38 52 51 63 60 53 9 -10 10 -26 3 -63z m-477 51 c260 -50 462
-209 574 -451 51 -111 67 -191 67 -330 0 -100 -5 -135 -27 -210 -139 -465
-648 -701 -1081 -501 -242 112 -401 314 -451 574 -103 538 380 1021 918 918z
m-767 -6 c3 -5 0 -10 -8 -10 -8 0 -21 -8 -30 -18 -16 -17 -15 -20 9 -43 l25
-24 18 23 c9 13 20 20 24 16 4 -4 -3 -18 -14 -30 l-22 -23 24 -20 c31 -26 34
-26 57 4 11 14 23 21 26 16 3 -5 -12 -24 -35 -43 l-40 -34 -62 61 -62 60 34
38 c37 39 46 43 56 27z m-61 -167 c25 -43 43 -79 42 -81 -2 -2 -47 5 -99 14
-87 15 -94 18 -84 35 6 10 15 15 20 12 11 -7 121 -32 125 -29 4 5 -48 95 -59
102 -8 5 -4 24 6 24 2 0 24 -35 49 -77z m1493 -32 c-13 -4 -108 -80 -118 -94
-3 -4 -11 -2 -17 6 -9 10 3 25 56 68 58 48 69 53 79 40 9 -12 9 -17 0 -20z
m-1567 -110 c25 -13 46 -25 48 -26 1 -1 0 -10 -4 -19 -6 -14 -9 -15 -23 -3 -9
7 -41 28 -71 47 -67 40 -63 36 -55 50 5 8 15 6 33 -6 15 -10 47 -29 72 -43z
m1627 34 c30 -21 40 -72 19 -93 -15 -15 -16 -14 -10 16 8 41 -9 62 -51 62 -59
0 -103 -56 -77 -97 4 -7 19 -16 32 -22 l25 -10 -24 0 c-62 -2 -84 83 -35 133
31 30 86 35 121 11z m-1680 -95 c40 -18 71 -36 68 -39 -2 -4 -38 -18 -79 -31
-42 -13 -76 -26 -76 -30 0 -3 25 -14 55 -24 30 -9 55 -21 55 -27 0 -12 5 -13
-81 16 -40 14 -79 23 -87 20 -9 -3 -10 0 -2 14 6 11 38 29 77 41 38 13 71 26
76 29 4 4 -18 18 -48 30 -30 13 -55 27 -55 33 0 12 0 12 97 -32z m1750 -47 c2
-6 -12 -16 -32 -23 -38 -12 -38 -13 -14 -77 9 -26 16 -27 53 -13 20 7 25 6 28
-8 3 -13 -12 -21 -67 -36 -87 -23 -97 -24 -102 -10 -2 6 15 16 37 23 44 13 44
13 19 79 -8 22 -10 22 -45 7 -44 -18 -44 -18 -44 -1 0 13 135 77 154 72 6 -1
11 -7 13 -13z m-1839 -129 c71 -20 92 -38 92 -79 0 -47 -15 -55 -107 -55 -72
0 -83 2 -83 18 0 15 11 17 82 17 78 0 83 1 86 22 4 27 -25 47 -95 63 -29 7
-53 16 -53 21 0 13 14 11 78 -7z m1890 -100 c-3 -3 -154 -34 -165 -34 -2 0 -3
6 -3 14 0 10 19 18 58 25 31 6 68 15 82 19 18 6 26 4 28 -6 2 -7 2 -15 0 -18z
m-35 -55 c33 -17 57 -51 57 -82 0 -36 -16 -67 -36 -67 -13 0 -12 4 4 25 48 61
-32 120 -112 83 -51 -23 -41 -78 15 -78 21 0 29 -5 29 -18 0 -14 -7 -17 -40
-14 -36 4 -40 7 -46 38 -9 50 3 82 39 104 37 23 59 25 90 9z m-1780 -139 l6
-55 -68 -2 c-38 -1 -78 -6 -90 -12 -20 -11 -21 -10 -21 54 0 36 4 65 9 65 5 0
7 -18 4 -40 -6 -40 -5 -40 27 -40 30 0 32 2 28 30 -3 20 0 30 9 30 7 0 13 -11
13 -26 0 -23 3 -25 33 -22 28 3 32 6 31 33 0 17 -4 39 -9 50 -7 18 -6 18 7 5
9 -8 18 -40 21 -70z m1738 -86 c36 -24 71 -49 78 -57 13 -17 13 -17 -109 -37
-36 -6 -73 -13 -82 -16 -12 -4 -15 0 -11 16 4 14 14 20 34 20 22 0 32 6 39 26
16 40 12 54 -18 67 -16 7 -27 18 -25 25 3 6 10 9 16 5 7 -4 42 -26 78 -49z
m-1721 -18 c0 -9 -16 -17 -41 -21 -39 -7 -40 -8 -34 -38 10 -45 19 -51 56 -38
41 14 49 14 49 -2 0 -7 -30 -23 -67 -36 -38 -13 -73 -28 -79 -32 -6 -5 -14 -6
-17 -2 -15 15 -5 32 24 42 23 8 30 15 25 27 -3 9 -9 27 -12 40 -3 13 -7 24 -8
24 0 0 -16 -4 -34 -9 -27 -8 -32 -7 -32 8 0 13 15 21 63 33 81 21 107 21 107
4z m1657 -145 c49 -20 75 -26 86 -19 15 8 16 6 6 -15 -8 -17 -27 -29 -67 -42
-116 -36 -114 -34 -50 -65 33 -15 53 -31 50 -37 -5 -7 -38 5 -91 32 -46 23
-80 44 -75 47 5 3 47 18 94 33 l85 29 -57 24 c-32 14 -58 29 -58 34 0 11 -1
11 77 -21z m-1587 -51 c6 -11 7 -19 2 -18 -14 5 -132 -55 -132 -67 0 -6 7 -21
16 -33 14 -20 14 -22 0 -22 -9 0 -29 26 -46 60 -32 63 -36 80 -20 80 6 0 10
-7 10 -15 0 -28 27 -27 86 4 71 36 71 36 84 11z m219 -264 c56 -29 67 -102 22
-147 -41 -40 -91 -40 -132 0 -78 78 11 198 110 147z m1157 -17 c35 -32 33 -97
-2 -133 -35 -35 -92 -36 -131 -2 -22 19 -28 32 -28 66 0 35 6 47 34 72 28 25
40 29 69 24 19 -3 45 -15 58 -27z m-407 -180 c-5 -19 -9 -58 -7 -88 2 -36 -1
-56 -9 -58 -27 -9 -26 72 2 139 6 14 2 15 -31 8 -44 -10 -58 -4 -29 13 17 10
75 25 82 22 2 -1 -2 -17 -8 -36z m-468 -57 c-10 -39 -17 -73 -13 -76 3 -3 -1
-6 -10 -6 -25 0 -26 8 -7 75 10 36 15 65 11 65 -4 0 2 7 13 16 28 21 29 7 6
-74z m191 51 c24 -21 23 -39 -4 -57 -20 -15 -21 -16 -5 -34 34 -37 14 -72 -40
-72 -70 0 -112 64 -60 91 30 16 30 15 16 37 -27 44 51 73 93 35z m127 -115 c1
-35 -3 -48 -13 -48 -18 0 -27 147 -11 169 12 16 23 -41 24 -121z"/>
<path d="M1340 2060 c-42 -42 -13 -130 43 -130 41 0 62 24 62 70 0 69 -61 104
-105 60z"/>
<path d="M581 1951 c-11 -7 -10 -14 8 -40 19 -26 26 -29 42 -21 20 11 23 27
13 54 -7 17 -41 21 -63 7z"/>
<path d="M1099 1858 c-6 -12 -15 -33 -18 -46 -5 -17 -20 -28 -59 -41 -30 -11
-55 -14 -58 -9 -3 5 -3 26 1 46 l7 37 29 -35 c36 -43 38 -32 2 21 -32 48 -44
41 -51 -33 -4 -47 -14 -67 -33 -68 -3 0 -19 20 -37 45 -17 25 -39 45 -48 45
-13 0 -15 -9 -11 -57 3 -32 6 -67 8 -78 7 -35 -28 -28 -74 14 -56 52 -82 55
-72 9 4 -18 16 -50 26 -70 18 -36 18 -38 2 -38 -10 0 -41 10 -69 21 -51 21
-84 21 -84 -1 0 -6 17 -29 38 -53 46 -51 76 -97 63 -97 -5 0 -46 12 -91 27
-58 19 -84 23 -92 15 -15 -15 23 -48 120 -102 45 -25 82 -48 82 -52 0 -16 -87
-7 -145 13 -61 21 -130 19 -122 -4 6 -18 167 -97 215 -105 24 -4 43 -11 43
-17 -1 -6 -55 -10 -141 -10 -95 0 -143 -4 -151 -12 -12 -12 -1 -20 54 -37 23
-7 22 -43 -3 -51 -47 -15 -12 -214 62 -358 64 -124 183 -239 308 -300 132 -64
207 -80 355 -75 143 6 239 34 350 103 181 112 297 288 335 504 13 75 8 107
-20 114 -30 8 -24 24 19 51 71 45 65 48 -90 46 -169 -2 -169 -2 -169 8 0 9 49
27 145 53 71 19 115 44 123 69 5 13 -17 12 -205 -6 -44 -4 -63 -3 -63 5 0 6 8
11 18 11 10 0 31 14 48 31 16 17 51 42 77 56 27 13 47 26 44 29 -7 7 -77 -36
-120 -73 -52 -46 -69 -44 -65 9 l3 41 65 19 c36 11 82 17 103 14 20 -2 37 -1
37 4 0 15 -31 19 -78 10 -105 -22 -112 -23 -112 -11 0 7 23 37 51 66 33 35 49
60 45 70 -7 20 -15 19 -76 -5 -43 -17 -90 -26 -90 -17 1 15 33 103 41 113 26
32 -30 12 -80 -27 -52 -42 -76 -44 -66 -6 5 16 4 18 -3 8 -8 -12 -14 -11 -36
6 l-25 20 35 34 c27 26 37 31 43 20 6 -9 10 -6 13 13 7 36 -5 33 -57 -15 -24
-22 -50 -39 -57 -37 -7 3 -13 22 -15 44 -6 95 -27 108 -69 44 -39 -58 -67 -55
-95 10 -23 54 -42 63 -60 28z m46 -18 c24 -47 20 -60 -20 -60 -25 0 -35 4 -35
15 0 17 27 75 35 75 2 0 11 -13 20 -30z m163 -48 c3 -45 -5 -51 -45 -29 l-22
12 21 33 c26 42 42 36 46 -16z m-434 -25 c31 -41 32 -48 5 -65 -28 -18 -40 -5
-46 52 -7 56 6 59 41 13z m395 -28 c58 -20 154 -87 171 -119 17 -31 -3 -24
-50 20 -24 22 -69 53 -99 68 -50 24 -67 27 -161 27 -92 0 -112 -3 -160 -26
-30 -14 -77 -45 -103 -69 -55 -48 -77 -46 -29 3 109 112 278 150 431 96z m-3
-40 c29 -11 72 -37 96 -59 l43 -39 -274 -1 -274 0 24 26 c88 94 247 124 385
73z m-516 -13 c20 -18 43 -36 51 -39 11 -4 9 -10 -8 -27 -26 -27 -47 -22 -66
17 -17 35 -30 83 -21 83 4 0 23 -15 44 -34z m795 12 c-2 -7 -9 -32 -15 -55 -8
-34 -15 -43 -32 -43 -11 0 -27 8 -34 18 -11 15 -8 22 29 54 44 39 59 46 52 26z
m139 -77 c3 -4 -5 -18 -18 -30 -20 -19 -25 -20 -35 -7 -10 12 -7 17 16 30 34
18 31 18 37 7z m-1055 -10 c12 -8 13 -12 1 -25 -12 -15 -14 -15 -31 0 -11 10
-19 21 -19 26 0 11 31 10 49 -1z m121 -36 c0 -16 -45 -21 -54 -6 -8 12 4 21
31 21 14 0 23 -6 23 -15z m80 0 c0 -9 -9 -15 -25 -15 -16 0 -25 6 -25 15 0 9
9 15 25 15 16 0 25 -6 25 -15z m80 0 c0 -9 -9 -15 -25 -15 -16 0 -25 6 -25 15
0 9 9 15 25 15 16 0 25 -6 25 -15z m80 0 c0 -9 -9 -15 -25 -15 -16 0 -25 6
-25 15 0 9 9 15 25 15 16 0 25 -6 25 -15z m81 0 c0 -5 -12 -11 -26 -13 -18 -2
-25 1 -25 13 0 12 7 15 25 13 14 -2 26 -7 26 -13z m87 -2 c2 -9 -7 -13 -27
-13 -30 0 -39 9 -24 24 11 10 46 3 51 -11z m80 0 c2 -9 -7 -13 -27 -13 -30 0
-39 9 -24 24 11 10 46 3 51 -11z m82 2 c0 -16 -45 -21 -54 -6 -8 12 4 21 31
21 14 0 23 -6 23 -15z m80 0 c0 -9 -9 -15 -25 -15 -16 0 -25 6 -25 15 0 9 9
15 25 15 16 0 25 -6 25 -15z m80 0 c0 -9 -9 -15 -25 -15 -16 0 -25 6 -25 15 0
9 9 15 25 15 16 0 25 -6 25 -15z m80 0 c0 -9 -9 -15 -25 -15 -16 0 -25 6 -25
15 0 9 9 15 25 15 16 0 25 -6 25 -15z m59 -31 c-16 -19 -29 -8 -29 23 0 25 0
26 20 8 15 -14 17 -21 9 -31z m-949 17 c0 -11 -4 -22 -9 -25 -12 -8 -34 21
-26 34 11 17 35 11 35 -9z m32 -75 c4 -27 -18 -31 -25 -5 -7 26 1 45 13 32 5
-4 10 -17 12 -27z m879 -5 c-12 -22 -31 -28 -31 -10 0 23 22 51 32 41 7 -7 6
-17 -1 -31z m-961 -15 c49 -20 55 -26 58 -54 4 -37 -7 -36 -73 8 -22 15 -50
30 -61 34 -12 4 -30 16 -40 28 l-19 21 40 -7 c21 -4 64 -18 95 -30z m98 -59
c2 -19 -1 -27 -12 -27 -11 0 -16 10 -16 31 0 38 24 35 28 -4z m844 -3 c-6 -34
-22 -30 -22 6 0 21 4 28 14 24 8 -3 11 -15 8 -30z m-687 -26 c16 -49 14 -58
-17 -58 -25 0 -29 3 -23 18 4 9 10 27 12 40 3 12 9 22 13 22 4 0 11 -10 15
-22z m255 2 c0 -11 -7 -20 -15 -20 -18 0 -19 12 -3 28 16 16 18 15 18 -8z
m-575 -30 c32 -11 73 -20 92 -20 30 0 33 -2 33 -31 0 -31 0 -32 -42 -25 -47 7
-198 74 -198 88 0 14 55 9 115 -12z m165 -25 c0 -16 -6 -25 -15 -25 -9 0 -15
9 -15 25 0 16 6 25 15 25 9 0 15 -9 15 -25z m403 18 c-7 -2 -19 -2 -25 0 -7 3
-2 5 12 5 14 0 19 -2 13 -5z m437 -18 c0 -14 -4 -25 -10 -25 -5 0 -10 11 -10
25 0 14 5 25 10 25 6 0 10 -11 10 -25z m251 5 c-13 -11 -35 -23 -50 -26 -22
-4 -56 -15 -163 -51 -15 -4 -18 1 -18 36 l0 41 58 1 c31 1 71 5 87 9 17 4 48
8 70 8 l40 1 -24 -19z m-395 2 c6 -4 8 -28 5 -62 -4 -35 -9 -50 -14 -42 -5 7
-6 19 -4 26 4 10 -1 12 -16 8 -22 -5 -22 -5 -3 16 18 21 18 21 -8 28 -21 5
-24 9 -15 20 12 15 38 18 55 6z m-283 -9 c-7 -2 -19 -2 -25 0 -7 3 -2 5 12 5
14 0 19 -2 13 -5z m-245 -20 c-16 -2 -40 -2 -55 0 -16 2 -3 4 27 4 30 0 43 -2
28 -4z m236 -3 c-12 -5 -24 -15 -27 -24 -4 -10 -1 -13 9 -9 7 3 14 9 14 15 0
5 7 2 17 -7 13 -14 14 -18 3 -25 -8 -5 5 -8 33 -8 26 0 45 3 42 7 -2 5 -16 7
-31 5 -19 -2 -24 1 -20 12 3 8 2 12 -3 9 -5 -3 -13 0 -17 6 -4 7 -3 9 4 5 6
-3 13 -2 17 4 3 5 1 10 -6 10 -7 0 -9 3 -6 7 8 7 77 -55 77 -69 0 -4 -47 -8
-105 -8 -58 0 -105 3 -105 7 0 4 14 21 31 39 21 21 40 31 62 32 27 0 29 -1 11
-8z m-239 -20 c3 -5 0 -10 -9 -10 -8 0 -16 -6 -18 -12 -3 -8 -9 -4 -17 10 -11
20 -10 22 13 22 14 0 28 -4 31 -10z m-167 -35 c-2 -14 -7 -26 -13 -26 -5 0
-11 12 -13 26 -2 18 1 25 13 25 12 0 15 -7 13 -25z m842 -5 c0 -16 -4 -30 -10
-30 -5 0 -10 14 -10 30 0 17 5 30 10 30 6 0 10 -13 10 -30z m-660 -1 c0 -5 -7
-9 -15 -9 -8 0 -15 7 -15 15 0 9 6 12 15 9 8 -4 15 -10 15 -15z m235 -14 c116
0 167 4 184 13 14 9 27 10 32 5 15 -15 -1 -43 -25 -44 -20 0 -20 -1 -1 -9 18
-8 18 -9 -5 -9 -41 -2 -73 -13 -60 -21 6 -4 -7 -10 -31 -14 -33 -5 -40 -9 -29
-16 17 -11 24 -10 -79 -16 -44 -3 -74 1 -94 11 -34 17 -50 20 -27 5 23 -15 -6
-13 -33 3 -32 18 -87 69 -87 81 0 6 11 -1 24 -15 23 -27 66 -55 66 -44 0 3
-13 20 -30 38 -41 44 -40 60 3 44 20 -7 92 -12 192 -12z m255 15 c0 -5 -5 -10
-11 -10 -5 0 -7 5 -4 10 3 6 8 10 11 10 2 0 4 -4 4 -10z m-933 -32 c-4 -14
-46 -12 -61 3 -6 5 5 9 28 9 26 0 36 -4 33 -12z m101 6 c20 -4 29 -11 25 -20
-3 -7 7 -38 21 -68 35 -73 35 -144 0 -115 -9 7 -11 26 -7 59 5 47 4 50 -23 60
-15 6 -44 10 -64 8 -32 -3 -35 -1 -38 25 -7 56 11 66 86 51z m62 -19 c0 -8 -4
-15 -10 -15 -5 0 -10 7 -10 15 0 8 5 15 10 15 6 0 10 -7 10 -15z m60 -5 c0
-13 -7 -20 -19 -20 -10 0 -21 9 -24 20 -4 16 0 20 19 20 17 0 24 -6 24 -20z
m1099 6 c7 -8 11 -27 9 -43 -3 -26 -6 -28 -53 -31 -60 -3 -75 -19 -75 -78 0
-45 -16 -67 -27 -38 -3 9 6 52 21 96 14 43 24 83 21 88 -12 19 88 25 104 6z
m81 10 c0 -2 -11 -11 -25 -20 -23 -15 -25 -15 -35 4 -10 18 -8 20 25 20 19 0
35 -2 35 -4z m-240 -31 c0 -13 7 -28 16 -33 14 -8 11 -11 -16 -21 -18 -6 -35
-11 -36 -11 -2 0 -4 20 -4 45 0 38 3 45 20 45 15 0 20 -7 20 -25z m40 5 c0
-11 -7 -20 -15 -20 -15 0 -21 21 -8 33 12 13 23 7 23 -13z m-940 -20 c0 -20
-5 -30 -15 -30 -10 0 -15 10 -15 30 0 20 5 30 15 30 10 0 15 -10 15 -30z m840
0 c0 -16 -4 -30 -10 -30 -5 0 -10 14 -10 30 0 17 5 30 10 30 6 0 10 -13 10
-30z m-887 -7 c4 -2 7 -77 7 -165 0 -153 1 -163 25 -203 33 -57 101 -99 238
-147 61 -21 129 -50 150 -64 l37 -24 38 24 c20 14 88 43 150 65 126 45 162 64
209 113 46 48 53 75 53 216 l0 128 30 11 c35 13 35 12 15 -45 -18 -50 -8 -78
30 -88 32 -8 32 -16 -9 -99 -46 -97 -113 -175 -199 -232 -102 -69 -196 -98
-317 -97 -162 0 -287 52 -401 164 -70 70 -111 132 -140 214 l-18 51 32 11 c28
9 32 16 35 51 3 35 -6 66 -36 127 -4 8 54 -1 71 -11z m-133 -70 c1 -126 70
-276 179 -384 117 -117 244 -169 409 -169 198 0 368 89 483 253 48 69 99 198
99 252 0 13 4 34 9 47 8 21 14 23 60 20 l51 -4 0 -42 c0 -60 -33 -183 -68
-253 -92 -181 -258 -317 -453 -370 -46 -13 -100 -18 -189 -17 -106 0 -136 4
-202 26 -216 72 -387 236 -457 441 -22 64 -45 202 -37 223 4 10 22 14 61 14
l55 0 0 -37z m44 22 c8 -21 -5 -108 -14 -98 -10 11 -21 99 -13 107 11 10 21 7
27 -9z m136 -30 c0 -16 -6 -25 -15 -25 -9 0 -15 9 -15 25 0 16 6 25 15 25 9 0
15 -9 15 -25z m840 0 c0 -14 -4 -25 -10 -25 -5 0 -10 11 -10 25 0 14 5 25 10
25 6 0 10 -11 10 -25z m140 -7 c0 -42 -10 -78 -21 -78 -8 0 -10 46 -3 88 6 34
24 26 24 -10z m-582 15 c-10 -2 -26 -2 -35 0 -10 3 -2 5 17 5 19 0 27 -2 18
-5z m6 -19 c9 -3 16 -15 16 -25 0 -14 -7 -19 -29 -19 -25 0 -28 3 -23 25 5 26
10 29 36 19z m-404 -69 c0 -16 -6 -25 -15 -25 -9 0 -15 9 -15 25 0 16 6 25 15
25 9 0 15 -9 15 -25z m295 8 c-16 -16 -16 -17 0 -29 40 -30 170 -29 211 0 15
12 16 16 5 30 -12 15 -4 16 84 16 l98 0 -35 -42 -36 -43 -243 -3 -244 -2 45
45 c39 40 49 45 88 45 41 0 42 -1 27 -17z m139 0 c32 3 44 2 31 -3 -11 -5 -14
-9 -7 -9 7 -1 10 -5 7 -11 -8 -13 -125 -13 -145 0 -13 9 -13 12 4 25 14 11 24
12 39 3 11 -6 43 -8 71 -5z m406 -13 c0 -16 -4 -30 -10 -30 -5 0 -10 14 -10
30 0 17 5 30 10 30 6 0 10 -13 10 -30z m-136 -17 c7 -17 -38 -92 -62 -100 -34
-13 -23 32 21 88 26 33 33 35 41 12z m-706 -60 c-4 -39 -28 -42 -28 -4 0 21 5
31 16 31 11 0 14 -8 12 -27z m842 -3 c0 -16 -4 -30 -10 -30 -5 0 -10 14 -10
30 0 17 5 30 10 30 6 0 10 -13 10 -30z m-432 0 l202 0 0 -25 0 -25 -245 0
c-210 0 -246 2 -251 15 -11 27 16 47 55 41 20 -3 127 -5 239 -6z m427 -89 c-3
-12 -11 -21 -16 -21 -10 0 -12 21 -3 45 10 24 27 2 19 -24z m-830 8 c4 -11 4
-23 2 -26 -9 -8 -24 5 -30 27 -7 27 20 27 28 -1z m55 -81 c0 -12 -14 -10 -35
5 -10 8 -15 19 -11 26 6 9 13 8 27 -5 10 -9 19 -21 19 -26z m740 24 c0 -5 -9
-17 -19 -26 -15 -13 -20 -14 -23 -4 -3 7 2 18 11 25 19 15 31 16 31 5z m-60
-51 c0 -11 -47 -31 -54 -23 -9 8 36 42 46 36 4 -3 8 -9 8 -13z m-626 3 c15 -6
23 -34 10 -34 -13 0 -44 21 -44 30 0 11 11 13 34 4z m87 -34 c5 0 9 -7 9 -15
0 -18 -1 -18 -35 -5 -15 6 -23 15 -20 21 4 6 14 8 22 5 8 -3 19 -6 24 -6z
m459 -5 c0 -8 -4 -15 -9 -15 -5 0 -16 -3 -25 -6 -10 -4 -16 -1 -16 9 0 13 13
21 43 26 4 0 7 -6 7 -14z m-380 -25 c22 -14 0 -30 -27 -19 -13 4 -23 13 -23
19 0 13 30 13 50 0z m304 1 c3 -5 -8 -14 -24 -20 -24 -8 -30 -7 -30 4 0 21 43
34 54 16z m-97 -48 c-22 -11 -37 -9 -37 6 0 4 10 13 23 18 30 14 44 -8 14 -24z
m-129 4 c3 -15 0 -16 -22 -6 -32 15 -34 32 -4 27 13 -2 24 -11 26 -21z m77
-26 c7 -12 -31 -25 -45 -16 -5 3 -10 10 -10 16 0 12 47 12 55 0z"/>
<path d="M1056 1271 l-29 -30 44 1 c24 1 36 3 27 6 -21 4 -21 7 -8 33 16 28
-2 23 -34 -10z m18 -6 c-4 -8 -11 -15 -16 -15 -6 0 -5 6 2 15 7 8 14 15 16 15
2 0 1 -7 -2 -15z"/>
<path d="M1170 1286 c0 -2 8 -10 18 -17 15 -13 16 -12 3 4 -13 16 -21 21 -21
13z"/>
<path d="M470 1076 c0 -9 5 -16 10 -16 6 0 10 4 10 9 0 6 -4 13 -10 16 -5 3
-10 -1 -10 -9z"/>
<path d="M1760 1016 c-7 -9 -16 -13 -21 -10 -5 3 -9 0 -9 -5 0 -16 21 -13 42
6 17 15 21 15 29 3 9 -13 10 -13 6 0 -5 21 -31 24 -47 6z"/>
<path d="M463 1009 c15 -9 17 -18 13 -44 l-7 -34 31 29 c16 15 30 30 30 33 0
6 -58 27 -74 27 -6 0 -3 -5 7 -11z m47 -13 c0 -3 -4 -8 -10 -11 -5 -3 -10 -1
-10 4 0 6 5 11 10 11 6 0 10 -2 10 -4z"/>
<path d="M1755 953 c-35 -9 -36 -18 -5 -48 16 -16 30 -24 30 -19 0 5 -9 16
-20 24 -23 17 -27 35 -5 26 8 -3 15 -1 15 4 0 5 8 11 18 13 23 6 -7 6 -33 0z"/>
<path d="M500 914 c-25 -15 -25 -15 13 -9 30 5 37 3 37 -11 0 -10 -5 -14 -15
-10 -15 5 -42 -30 -31 -41 3 -3 8 2 12 11 3 9 15 16 25 16 19 0 24 16 13 44
-8 20 -22 20 -54 0z"/>
<path d="M1686 875 c-3 -9 -6 -17 -6 -18 0 -1 10 -2 23 -3 12 0 30 -4 40 -8
10 -5 17 -4 17 3 0 6 -8 11 -17 11 -9 0 -24 7 -33 15 -16 14 -18 14 -24 0z"/>
<path d="M584 828 c3 -12 -4 -21 -25 -30 -16 -7 -29 -16 -29 -20 0 -12 14 -9
38 8 19 13 25 14 39 2 14 -12 15 -11 5 7 -6 11 -16 27 -23 35 -9 13 -10 13 -5
-2z"/>
<path d="M1660 822 c1 -9 70 -42 70 -33 0 4 -16 15 -35 24 -19 9 -35 13 -35 9z"/>
<path d="M1634 778 c-4 -6 -3 -8 4 -4 16 10 26 -14 12 -27 -10 -9 -14 -9 -17
1 -3 6 -9 9 -14 6 -6 -3 4 -17 22 -30 38 -28 47 -30 29 -9 -14 17 -15 17 20
32 23 11 24 12 4 12 -12 1 -24 8 -28 16 -6 18 -22 20 -32 3z"/>
<path d="M606 733 c-21 -18 -26 -27 -17 -36 8 -8 11 -7 11 6 0 20 11 22 30 5
12 -11 12 -10 2 4 -19 24 5 35 24 12 14 -18 14 -18 4 3 -15 33 -22 34 -54 6z"/>
<path d="M1575 700 c-18 -20 -18 -21 8 -48 l27 -26 22 24 c21 22 21 23 1 6
-22 -18 -41 -7 -27 16 4 7 3 8 -4 4 -22 -14 -34 5 -16 25 9 10 15 19 12 19 -3
0 -13 -9 -23 -20z"/>
<path d="M687 674 c-3 -4 -3 -19 0 -35 6 -32 -10 -40 -26 -11 -6 9 -11 12 -11
6 0 -17 27 -37 40 -29 5 3 10 20 10 37 l0 31 23 -19 22 -19 -19 23 c-20 23
-28 26 -39 16z"/>
<path d="M1531 655 c1 -19 18 -51 18 -35 0 8 -4 22 -9 30 -5 8 -9 11 -9 5z"/>
<path d="M1513 599 c22 -11 41 -18 44 -16 5 6 -56 37 -71 37 -6 -1 6 -10 27
-21z"/>
<path d="M750 589 c0 -5 5 -7 10 -4 6 3 10 8 10 11 0 2 -4 4 -10 4 -5 0 -10
-5 -10 -11z"/>
<path d="M820 568 c0 -7 4 -20 10 -28 5 -9 5 -19 -2 -27 -7 -9 -7 -13 1 -13
18 0 25 29 10 46 -10 13 -10 17 2 25 11 7 11 9 -3 9 -10 0 -18 -6 -18 -12z"/>
<path d="M1465 570 c-3 -5 -1 -10 4 -10 6 0 11 5 11 10 0 6 -2 10 -4 10 -3 0
-8 -4 -11 -10z"/>
<path d="M1400 551 c0 -5 6 -12 13 -15 10 -5 10 -7 0 -12 -7 -3 -13 -13 -13
-22 0 -13 2 -13 14 3 8 11 19 16 30 12 27 -11 18 8 -14 26 -16 10 -30 14 -30
8z"/>
<path d="M1338 545 c-8 -8 13 -75 23 -75 4 0 4 12 -1 28 -5 15 -10 33 -12 40
-2 7 -6 10 -10 7z"/>
<path d="M790 531 c0 -6 4 -13 10 -16 6 -3 7 1 4 9 -7 18 -14 21 -14 7z"/>
<path d="M902 531 c-8 -4 -12 -19 -10 -31 4 -29 33 -49 48 -34 8 8 4 10 -12
10 -18 -1 -23 4 -23 24 0 21 5 25 27 25 14 -1 24 3 22 7 -7 10 -35 10 -52 -1z"/>
<path d="M1260 520 c-24 -8 -24 -8 -2 -9 14 -1 22 -7 22 -18 0 -10 5 -25 11
-33 7 -11 8 -6 4 19 -5 23 -3 36 6 42 11 7 11 9 -1 8 -8 -1 -26 -5 -40 -9z"/>
<path d="M1000 503 c0 -10 -3 -29 -7 -43 -3 -14 -3 -22 1 -18 12 11 25 78 15
78 -5 0 -9 -8 -9 -17z"/>
<path d="M1058 470 l-4 -40 36 1 c29 2 30 3 8 6 -22 4 -26 9 -26 34 1 27 4 30
25 26 12 -2 23 0 23 4 0 5 -13 9 -29 9 -26 0 -29 -3 -33 -40z"/>
<path d="M1162 468 c1 -39 2 -40 5 -9 l4 33 30 -28 29 -28 -1 40 c-1 32 -2 35
-8 14 -5 -17 -9 -21 -14 -12 -5 6 -17 17 -28 22 -17 10 -19 7 -17 -32z"/>
<path d="M1432 1730 c0 -14 2 -19 5 -12 2 6 2 18 0 25 -3 6 -5 1 -5 -13z"/>
<path d="M2016 934 c-10 -27 -7 -34 17 -34 41 0 51 15 23 33 -31 21 -32 21
-40 1z"/>
<path d="M529 472 c-46 -23 -60 -72 -32 -110 42 -56 111 -51 141 10 10 22 10
33 -2 61 -19 47 -62 62 -107 39z m51 -18 c0 -14 2 -15 17 -3 15 12 16 12 10
-3 -4 -12 -2 -18 8 -18 9 0 15 -10 15 -25 0 -27 -6 -30 -29 -16 -8 5 -11 16
-8 26 6 13 1 15 -26 12 -23 -3 -31 -8 -29 -20 1 -9 -6 -21 -17 -26 -16 -9 -21
-7 -26 9 -8 26 2 41 23 33 15 -6 15 -5 3 10 -7 10 -9 17 -3 17 6 0 13 -6 16
-12 3 -7 3 -3 0 10 -4 18 -1 22 20 22 17 0 26 -5 26 -16z m37 -87 c4 -6 -1 -8
-11 -4 -11 4 -15 3 -10 -4 7 -12 -12 -29 -33 -29 -7 0 -13 10 -13 21 0 18 -2
19 -15 9 -9 -8 -15 -8 -15 -2 0 6 6 13 13 15 21 9 78 4 84 -6z"/>
<path d="M550 450 c0 -5 5 -10 10 -10 6 0 10 5 10 10 0 6 -4 10 -10 10 -5 0
-10 -4 -10 -10z"/>
<path d="M605 410 c-3 -5 -1 -10 4 -10 6 0 11 5 11 10 0 6 -2 10 -4 10 -3 0
-8 -4 -11 -10z"/>
<path d="M505 400 c-3 -5 1 -10 9 -10 9 0 16 5 16 10 0 6 -4 10 -9 10 -6 0
-13 -4 -16 -10z"/>
<path d="M560 360 c0 -5 5 -10 10 -10 6 0 10 5 10 10 0 6 -4 10 -10 10 -5 0
-10 -4 -10 -10z"/>
<path d="M1680 482 c-32 -10 -60 -46 -60 -77 0 -82 96 -112 147 -46 41 53 -23
143 -87 123z m50 -28 c0 -8 5 -12 10 -9 6 3 10 1 10 -5 0 -7 -7 -9 -16 -6 -8
3 -12 2 -9 -4 3 -6 15 -10 26 -10 15 0 20 -6 17 -22 -2 -17 -9 -22 -22 -20
-18 3 -18 2 -5 -14 12 -15 12 -17 -1 -12 -9 3 -15 17 -15 39 0 19 -6 35 -13
35 -6 1 -15 3 -19 4 -5 1 -11 2 -15 2 -3 -1 -12 5 -18 13 -8 9 -8 15 -2 15 6
0 13 -6 15 -12 3 -8 6 -6 6 5 1 22 51 24 51 1z m-66 -30 c17 -7 22 -34 7 -34
-5 0 -16 -3 -25 -6 -12 -5 -16 0 -16 20 0 27 7 31 34 20z m51 -61 c8 -22 -9
-36 -33 -28 -13 4 -19 12 -15 21 4 10 0 12 -13 7 -10 -4 -15 -2 -11 4 10 17
65 13 72 -4z"/>
<path d="M1695 450 c4 -6 11 -8 16 -5 14 9 11 15 -7 15 -8 0 -12 -5 -9 -10z"/>
<path d="M1740 400 c0 -5 5 -10 10 -10 6 0 10 5 10 10 0 6 -4 10 -10 10 -5 0
-10 -4 -10 -10z"/>
<path d="M1640 410 c0 -5 7 -10 16 -10 8 0 12 5 9 10 -3 6 -10 10 -16 10 -5 0
-9 -4 -9 -10z"/>
<path d="M1685 360 c-3 -5 -1 -10 4 -10 6 0 11 5 11 10 0 6 -2 10 -4 10 -3 0
-8 -4 -11 -10z"/>
<path d="M1014 275 c-9 -23 3 -45 24 -45 28 0 43 20 31 42 -12 22 -47 24 -55
3z"/>
<path d="M992 198 c-27 -27 -6 -68 34 -68 29 0 38 27 19 56 -17 26 -35 30 -53
12z"/>
</g>
</svg>
